<svg xmlns:xlink="http://www.w3.org/1999/xlink" width="76.833ex" height="2.843ex" style="font-size: 15px; vertical-align: -0.838ex;" viewBox="0 -863.1 33080.8 1223.9" role="img" focusable="false" xmlns="http://www.w3.org/2000/svg">
<defs>
<path stroke-width="1" id="E1-MJMATHI-44" d="M287 628Q287 635 230 637Q207 637 200 638T193 647Q193 655 197 667T204 682Q206 683 403 683Q570 682 590 682T630 676Q702 659 752 597T803 431Q803 275 696 151T444 3L430 1L236 0H125H72Q48 0 41 2T33 11Q33 13 36 25Q40 41 44 43T67 46Q94 46 127 49Q141 52 146 61Q149 65 218 339T287 628ZM703 469Q703 507 692 537T666 584T629 613T590 629T555 636Q553 636 541 636T512 636T479 637H436Q392 637 386 627Q384 623 313 339T242 52Q242 48 253 48T330 47Q335 47 349 47T373 46Q499 46 581 128Q617 164 640 212T683 339T703 469Z"></path>
<path stroke-width="1" id="E1-MJMATHI-4B" d="M285 628Q285 635 228 637Q205 637 198 638T191 647Q191 649 193 661Q199 681 203 682Q205 683 214 683H219Q260 681 355 681Q389 681 418 681T463 682T483 682Q500 682 500 674Q500 669 497 660Q496 658 496 654T495 648T493 644T490 641T486 639T479 638T470 637T456 637Q416 636 405 634T387 623L306 305Q307 305 490 449T678 597Q692 611 692 620Q692 635 667 637Q651 637 651 648Q651 650 654 662T659 677Q662 682 676 682Q680 682 711 681T791 680Q814 680 839 681T869 682Q889 682 889 672Q889 650 881 642Q878 637 862 637Q787 632 726 586Q710 576 656 534T556 455L509 418L518 396Q527 374 546 329T581 244Q656 67 661 61Q663 59 666 57Q680 47 717 46H738Q744 38 744 37T741 19Q737 6 731 0H720Q680 3 625 3Q503 3 488 0H478Q472 6 472 9T474 27Q478 40 480 43T491 46H494Q544 46 544 71Q544 75 517 141T485 216L427 354L359 301L291 248L268 155Q245 63 245 58Q245 51 253 49T303 46H334Q340 37 340 35Q340 19 333 5Q328 0 317 0Q314 0 280 1T180 2Q118 2 85 2T49 1Q31 1 31 11Q31 13 34 25Q38 41 42 43T65 46Q92 46 125 49Q139 52 144 61Q147 65 216 339T285 628Z"></path>
<path stroke-width="1" id="E1-MJMATHI-4C" d="M228 637Q194 637 192 641Q191 643 191 649Q191 673 202 682Q204 683 217 683Q271 680 344 680Q485 680 506 683H518Q524 677 524 674T522 656Q517 641 513 637H475Q406 636 394 628Q387 624 380 600T313 336Q297 271 279 198T252 88L243 52Q243 48 252 48T311 46H328Q360 46 379 47T428 54T478 72T522 106T564 161Q580 191 594 228T611 270Q616 273 628 273H641Q647 264 647 262T627 203T583 83T557 9Q555 4 553 3T537 0T494 -1Q483 -1 418 -1T294 0H116Q32 0 32 10Q32 17 34 24Q39 43 44 45Q48 46 59 46H65Q92 46 125 49Q139 52 144 61Q147 65 216 339T285 628Q285 635 228 637Z"></path>
<path stroke-width="1" id="E1-MJMAIN-28" d="M94 250Q94 319 104 381T127 488T164 576T202 643T244 695T277 729T302 750H315H319Q333 750 333 741Q333 738 316 720T275 667T226 581T184 443T167 250T184 58T225 -81T274 -167T316 -220T333 -241Q333 -250 318 -250H315H302L274 -226Q180 -141 137 -14T94 250Z"></path>
<path stroke-width="1" id="E1-MJMATHI-50" d="M287 628Q287 635 230 637Q206 637 199 638T192 648Q192 649 194 659Q200 679 203 681T397 683Q587 682 600 680Q664 669 707 631T751 530Q751 453 685 389Q616 321 507 303Q500 302 402 301H307L277 182Q247 66 247 59Q247 55 248 54T255 50T272 48T305 46H336Q342 37 342 35Q342 19 335 5Q330 0 319 0Q316 0 282 1T182 2Q120 2 87 2T51 1Q33 1 33 11Q33 13 36 25Q40 41 44 43T67 46Q94 46 127 49Q141 52 146 61Q149 65 218 339T287 628ZM645 554Q645 567 643 575T634 597T609 619T560 635Q553 636 480 637Q463 637 445 637T416 636T404 636Q391 635 386 627Q384 621 367 550T332 412T314 344Q314 342 395 342H407H430Q542 342 590 392Q617 419 631 471T645 554Z"></path>
<path stroke-width="1" id="E1-MJMATHI-72" d="M21 287Q22 290 23 295T28 317T38 348T53 381T73 411T99 433T132 442Q161 442 183 430T214 408T225 388Q227 382 228 382T236 389Q284 441 347 441H350Q398 441 422 400Q430 381 430 363Q430 333 417 315T391 292T366 288Q346 288 334 299T322 328Q322 376 378 392Q356 405 342 405Q286 405 239 331Q229 315 224 298T190 165Q156 25 151 16Q138 -11 108 -11Q95 -11 87 -5T76 7T74 17Q74 30 114 189T154 366Q154 405 128 405Q107 405 92 377T68 316T57 280Q55 278 41 278H27Q21 284 21 287Z"></path>
<path stroke-width="1" id="E1-MJMATHI-65" d="M39 168Q39 225 58 272T107 350T174 402T244 433T307 442H310Q355 442 388 420T421 355Q421 265 310 237Q261 224 176 223Q139 223 138 221Q138 219 132 186T125 128Q125 81 146 54T209 26T302 45T394 111Q403 121 406 121Q410 121 419 112T429 98T420 82T390 55T344 24T281 -1T205 -11Q126 -11 83 42T39 168ZM373 353Q367 405 305 405Q272 405 244 391T199 357T170 316T154 280T149 261Q149 260 169 260Q282 260 327 284T373 353Z"></path>
<path stroke-width="1" id="E1-MJMATHI-66" d="M118 -162Q120 -162 124 -164T135 -167T147 -168Q160 -168 171 -155T187 -126Q197 -99 221 27T267 267T289 382V385H242Q195 385 192 387Q188 390 188 397L195 425Q197 430 203 430T250 431Q298 431 298 432Q298 434 307 482T319 540Q356 705 465 705Q502 703 526 683T550 630Q550 594 529 578T487 561Q443 561 443 603Q443 622 454 636T478 657L487 662Q471 668 457 668Q445 668 434 658T419 630Q412 601 403 552T387 469T380 433Q380 431 435 431Q480 431 487 430T498 424Q499 420 496 407T491 391Q489 386 482 386T428 385H372L349 263Q301 15 282 -47Q255 -132 212 -173Q175 -205 139 -205Q107 -205 81 -186T55 -132Q55 -95 76 -78T118 -61Q162 -61 162 -103Q162 -122 151 -136T127 -157L118 -162Z"></path>
<path stroke-width="1" id="E1-MJMAIN-2223" d="M139 -249H137Q125 -249 119 -235V251L120 737Q130 750 139 750Q152 750 159 735V-235Q151 -249 141 -249H139Z"></path>
<path stroke-width="1" id="E1-MJMATHI-6E" d="M21 287Q22 293 24 303T36 341T56 388T89 425T135 442Q171 442 195 424T225 390T231 369Q231 367 232 367L243 378Q304 442 382 442Q436 442 469 415T503 336T465 179T427 52Q427 26 444 26Q450 26 453 27Q482 32 505 65T540 145Q542 153 560 153Q580 153 580 145Q580 144 576 130Q568 101 554 73T508 17T439 -10Q392 -10 371 17T350 73Q350 92 386 193T423 345Q423 404 379 404H374Q288 404 229 303L222 291L189 157Q156 26 151 16Q138 -11 108 -11Q95 -11 87 -5T76 7T74 17Q74 30 112 180T152 343Q153 348 153 366Q153 405 129 405Q91 405 66 305Q60 285 60 284Q58 278 41 278H27Q21 284 21 287Z"></path>
<path stroke-width="1" id="E1-MJMATHI-77" d="M580 385Q580 406 599 424T641 443Q659 443 674 425T690 368Q690 339 671 253Q656 197 644 161T609 80T554 12T482 -11Q438 -11 404 5T355 48Q354 47 352 44Q311 -11 252 -11Q226 -11 202 -5T155 14T118 53T104 116Q104 170 138 262T173 379Q173 380 173 381Q173 390 173 393T169 400T158 404H154Q131 404 112 385T82 344T65 302T57 280Q55 278 41 278H27Q21 284 21 287Q21 293 29 315T52 366T96 418T161 441Q204 441 227 416T250 358Q250 340 217 250T184 111Q184 65 205 46T258 26Q301 26 334 87L339 96V119Q339 122 339 128T340 136T341 143T342 152T345 165T348 182T354 206T362 238T373 281Q402 395 406 404Q419 431 449 431Q468 431 475 421T483 402Q483 389 454 274T422 142Q420 131 420 107V100Q420 85 423 71T442 42T487 26Q558 26 600 148Q609 171 620 213T632 273Q632 306 619 325T593 357T580 385Z"></path>
<path stroke-width="1" id="E1-MJMAIN-29" d="M60 749L64 750Q69 750 74 750H86L114 726Q208 641 251 514T294 250Q294 182 284 119T261 12T224 -76T186 -143T145 -194T113 -227T90 -246Q87 -249 86 -250H74Q66 -250 63 -250T58 -247T55 -238Q56 -237 66 -225Q221 -64 221 250T66 725Q56 737 55 738Q55 746 60 749Z"></path>
<path stroke-width="1" id="E1-MJMAIN-2248" d="M55 319Q55 360 72 393T114 444T163 472T205 482Q207 482 213 482T223 483Q262 483 296 468T393 413L443 381Q502 346 553 346Q609 346 649 375T694 454Q694 465 698 474T708 483Q722 483 722 452Q722 386 675 338T555 289Q514 289 468 310T388 357T308 404T224 426Q164 426 125 393T83 318Q81 289 69 289Q55 289 55 319ZM55 85Q55 126 72 159T114 210T163 238T205 248Q207 248 213 248T223 249Q262 249 296 234T393 179L443 147Q502 112 553 112Q609 112 649 141T694 220Q694 249 708 249T722 217Q722 153 675 104T555 55Q514 55 468 76T388 123T308 170T224 192Q164 192 125 159T83 84Q80 55 69 55Q55 55 55 85Z"></path>
<path stroke-width="1" id="E1-MJMATHI-78" d="M52 289Q59 331 106 386T222 442Q257 442 286 424T329 379Q371 442 430 442Q467 442 494 420T522 361Q522 332 508 314T481 292T458 288Q439 288 427 299T415 328Q415 374 465 391Q454 404 425 404Q412 404 406 402Q368 386 350 336Q290 115 290 78Q290 50 306 38T341 26Q378 26 414 59T463 140Q466 150 469 151T485 153H489Q504 153 504 145Q504 144 502 134Q486 77 440 33T333 -11Q263 -11 227 52Q186 -10 133 -10H127Q78 -10 57 16T35 71Q35 103 54 123T99 143Q142 143 142 101Q142 81 130 66T107 46T94 41L91 40Q91 39 97 36T113 29T132 26Q168 26 194 71Q203 87 217 139T245 247T261 313Q266 340 266 352Q266 380 251 392T217 404Q177 404 142 372T93 290Q91 281 88 280T72 278H58Q52 284 52 289Z"></path>
<path stroke-width="1" id="E1-MJMATHI-70" d="M23 287Q24 290 25 295T30 317T40 348T55 381T75 411T101 433T134 442Q209 442 230 378L240 387Q302 442 358 442Q423 442 460 395T497 281Q497 173 421 82T249 -10Q227 -10 210 -4Q199 1 187 11T168 28L161 36Q160 35 139 -51T118 -138Q118 -144 126 -145T163 -148H188Q194 -155 194 -157T191 -175Q188 -187 185 -190T172 -194Q170 -194 161 -194T127 -193T65 -192Q-5 -192 -24 -194H-32Q-39 -187 -39 -183Q-37 -156 -26 -148H-6Q28 -147 33 -136Q36 -130 94 103T155 350Q156 355 156 364Q156 405 131 405Q109 405 94 377T71 316T59 280Q57 278 43 278H29Q23 284 23 287ZM178 102Q200 26 252 26Q282 26 310 49T356 107Q374 141 392 215T411 325V331Q411 405 350 405Q339 405 328 402T306 393T286 380T269 365T254 350T243 336T235 326L232 322Q232 321 229 308T218 264T204 212Q178 106 178 102Z"></path>
<path stroke-width="1" id="E1-MJMATHI-6C" d="M117 59Q117 26 142 26Q179 26 205 131Q211 151 215 152Q217 153 225 153H229Q238 153 241 153T246 151T248 144Q247 138 245 128T234 90T214 43T183 6T137 -11Q101 -11 70 11T38 85Q38 97 39 102L104 360Q167 615 167 623Q167 626 166 628T162 632T157 634T149 635T141 636T132 637T122 637Q112 637 109 637T101 638T95 641T94 647Q94 649 96 661Q101 680 107 682T179 688Q194 689 213 690T243 693T254 694Q266 694 266 686Q266 675 193 386T118 83Q118 81 118 75T117 65V59Z"></path>
<path stroke-width="1" id="E1-MJMATHI-6F" d="M201 -11Q126 -11 80 38T34 156Q34 221 64 279T146 380Q222 441 301 441Q333 441 341 440Q354 437 367 433T402 417T438 387T464 338T476 268Q476 161 390 75T201 -11ZM121 120Q121 70 147 48T206 26Q250 26 289 58T351 142Q360 163 374 216T388 308Q388 352 370 375Q346 405 306 405Q243 405 195 347Q158 303 140 230T121 120Z"></path>
<path stroke-width="1" id="E1-MJMATHI-67" d="M311 43Q296 30 267 15T206 0Q143 0 105 45T66 160Q66 265 143 353T314 442Q361 442 401 394L404 398Q406 401 409 404T418 412T431 419T447 422Q461 422 470 413T480 394Q480 379 423 152T363 -80Q345 -134 286 -169T151 -205Q10 -205 10 -137Q10 -111 28 -91T74 -71Q89 -71 102 -80T116 -111Q116 -121 114 -130T107 -144T99 -154T92 -162L90 -164H91Q101 -167 151 -167Q189 -167 211 -155Q234 -144 254 -122T282 -75Q288 -56 298 -13Q311 35 311 43ZM384 328L380 339Q377 350 375 354T369 368T359 382T346 393T328 402T306 405Q262 405 221 352Q191 313 171 233T151 117Q151 38 213 38Q269 38 323 108L331 118L384 328Z"></path>
<path stroke-width="1" id="E1-MJMAIN-2212" d="M84 237T84 250T98 270H679Q694 262 694 250T679 230H98Q84 237 84 250Z"></path>
<path stroke-width="1" id="E1-MJMAIN-31" d="M213 578L200 573Q186 568 160 563T102 556H83V602H102Q149 604 189 617T245 641T273 663Q275 666 285 666Q294 666 302 660V361L303 61Q310 54 315 52T339 48T401 46H427V0H416Q395 3 257 3Q121 3 100 0H88V46H114Q136 46 152 46T177 47T193 50T201 52T207 57T213 61V578Z"></path>
</defs>
<g stroke="currentColor" fill="currentColor" stroke-width="0" transform="matrix(1 0 0 -1 0 0)">
 <use xlink:href="#E1-MJMATHI-44" x="0" y="0"></use>
<g transform="translate(828,-150)">
 <use transform="scale(0.707)" xlink:href="#E1-MJMATHI-4B" x="0" y="0"></use>
 <use transform="scale(0.707)" xlink:href="#E1-MJMATHI-4C" x="889" y="0"></use>
</g>
 <use xlink:href="#E1-MJMAIN-28" x="2206" y="0"></use>
 <use xlink:href="#E1-MJMATHI-50" x="2595" y="0"></use>
 <use xlink:href="#E1-MJMATHI-72" x="3347" y="0"></use>
 <use xlink:href="#E1-MJMATHI-65" x="3798" y="0"></use>
 <use xlink:href="#E1-MJMATHI-66" x="4265" y="0"></use>
<g transform="translate(4982,0)">
 <use xlink:href="#E1-MJMAIN-2223"></use>
 <use xlink:href="#E1-MJMAIN-2223" x="278" y="0"></use>
</g>
 <use xlink:href="#E1-MJMATHI-50" x="5816" y="0"></use>
 <use xlink:href="#E1-MJMATHI-6E" x="6568" y="0"></use>
 <use xlink:href="#E1-MJMATHI-65" x="7168" y="0"></use>
 <use xlink:href="#E1-MJMATHI-77" x="7635" y="0"></use>
 <use xlink:href="#E1-MJMAIN-29" x="8518" y="0"></use>
 <use xlink:href="#E1-MJMAIN-2248" x="9185" y="0"></use>
 <use xlink:href="#E1-MJMATHI-65" x="10242" y="0"></use>
 <use xlink:href="#E1-MJMATHI-78" x="10708" y="0"></use>
 <use xlink:href="#E1-MJMATHI-70" x="11281" y="0"></use>
 <use xlink:href="#E1-MJMAIN-28" x="11784" y="0"></use>
 <use xlink:href="#E1-MJMATHI-6C" x="12174" y="0"></use>
 <use xlink:href="#E1-MJMATHI-6F" x="12472" y="0"></use>
 <use xlink:href="#E1-MJMATHI-67" x="12958" y="0"></use>
 <use xlink:href="#E1-MJMATHI-50" x="13438" y="0"></use>
 <use xlink:href="#E1-MJMATHI-72" x="14190" y="0"></use>
 <use xlink:href="#E1-MJMATHI-65" x="14641" y="0"></use>
 <use xlink:href="#E1-MJMATHI-66" x="15108" y="0"></use>
 <use xlink:href="#E1-MJMAIN-2212" x="15825" y="0"></use>
 <use xlink:href="#E1-MJMATHI-6C" x="16603" y="0"></use>
 <use xlink:href="#E1-MJMATHI-6F" x="16902" y="0"></use>
 <use xlink:href="#E1-MJMATHI-67" x="17387" y="0"></use>
 <use xlink:href="#E1-MJMATHI-50" x="17868" y="0"></use>
 <use xlink:href="#E1-MJMATHI-6E" x="18619" y="0"></use>
 <use xlink:href="#E1-MJMATHI-65" x="19220" y="0"></use>
 <use xlink:href="#E1-MJMATHI-77" x="19686" y="0"></use>
 <use xlink:href="#E1-MJMAIN-29" x="20570" y="0"></use>
 <use xlink:href="#E1-MJMAIN-2212" x="21181" y="0"></use>
 <use xlink:href="#E1-MJMAIN-28" x="22182" y="0"></use>
 <use xlink:href="#E1-MJMATHI-6C" x="22571" y="0"></use>
 <use xlink:href="#E1-MJMATHI-6F" x="22870" y="0"></use>
 <use xlink:href="#E1-MJMATHI-67" x="23355" y="0"></use>
 <use xlink:href="#E1-MJMATHI-50" x="23836" y="0"></use>
 <use xlink:href="#E1-MJMATHI-72" x="24587" y="0"></use>
 <use xlink:href="#E1-MJMATHI-65" x="25039" y="0"></use>
 <use xlink:href="#E1-MJMATHI-66" x="25505" y="0"></use>
 <use xlink:href="#E1-MJMAIN-2212" x="26223" y="0"></use>
 <use xlink:href="#E1-MJMATHI-6C" x="27001" y="0"></use>
 <use xlink:href="#E1-MJMATHI-6F" x="27300" y="0"></use>
 <use xlink:href="#E1-MJMATHI-67" x="27785" y="0"></use>
 <use xlink:href="#E1-MJMATHI-50" x="28266" y="0"></use>
 <use xlink:href="#E1-MJMATHI-6E" x="29017" y="0"></use>
 <use xlink:href="#E1-MJMATHI-65" x="29618" y="0"></use>
 <use xlink:href="#E1-MJMATHI-77" x="30084" y="0"></use>
 <use xlink:href="#E1-MJMAIN-29" x="30967" y="0"></use>
 <use xlink:href="#E1-MJMAIN-2212" x="31579" y="0"></use>
 <use xlink:href="#E1-MJMAIN-31" x="32580" y="0"></use>
</g>
</svg>